HIERARCHY
ROOT Hips
{
	OFFSET 0.000000 0.000000 0.000000
	CHANNELS 6 Xposition Yposition Zposition Xrotation Yrotation Zrotation
	JOINT LeftUpLeg_virtual
	{
		OFFSET 0.000000 0.000000 0.000000
		CHANNELS 3 Xrotation Yrotation Zrotation
		JOINT LeftUpLeg
		{
			OFFSET 11.394100 -6.187798 -0.413800
			CHANNELS 3 Xrotation Yrotation Zrotation
			JOINT LeftLeg
			{
				OFFSET 0.430247 -32.302673 3.732800
				CHANNELS 3 Xrotation Yrotation Zrotation
				JOINT LeftFoot
				{
					OFFSET -0.430247 -48.264931 -6.423300
					CHANNELS 3 Xrotation Yrotation Zrotation
					JOINT LeftToeBase
					{
						OFFSET 4.230900 -16.068199 23.438400
						CHANNELS 3 Xrotation Yrotation Zrotation
						JOINT LeftToe_End
						{
							OFFSET 4.510700 0.695400 19.974600
							CHANNELS 3 Xrotation Yrotation Zrotation
							End Site
							{
								OFFSET 0 0 0
							}
						}
					}
				}
			}
		}
	}
	JOINT RightUpLeg_virtual
	{
		OFFSET 0.000000 0.000000 0.000000
		CHANNELS 3 Xrotation Yrotation Zrotation
		JOINT RightUpLeg
		{
			OFFSET -11.333700 -6.187798 -0.413800
			CHANNELS 3 Xrotation Yrotation Zrotation
			JOINT RightLeg
			{
				OFFSET -0.430392 -32.302628 3.733000
				CHANNELS 3 Xrotation Yrotation Zrotation
				JOINT RightFoot
				{
					OFFSET 0.430392 -48.264973 -6.423500
					CHANNELS 3 Xrotation Yrotation Zrotation
					JOINT RightToeBase
					{
						OFFSET -4.230900 -16.068199 23.438400
						CHANNELS 3 Xrotation Yrotation Zrotation
						JOINT RightToe_End
						{
							OFFSET -4.510700 0.695400 19.974600
							CHANNELS 3 Xrotation Yrotation Zrotation
							End Site
							{
								OFFSET 0 0 0
							}
						}
					}
				}
			}
		}
	}
	JOINT Spine_virtual
	{
		OFFSET 0.000000 0.000000 0.000000
		CHANNELS 3 Xrotation Yrotation Zrotation
		JOINT Spine
		{
			OFFSET -0.002400 12.777504 0.315300
			CHANNELS 3 Xrotation Yrotation Zrotation
			JOINT Spine1
			{
				OFFSET -0.002067 5.816869 0.032633
				CHANNELS 3 Xrotation Yrotation Zrotation
				JOINT Spine1_split
				{
					OFFSET -0.002067 5.816869 0.032633
					CHANNELS 3 Xrotation Yrotation Zrotation
					JOINT Spine2
					{
						OFFSET -0.002067 5.816869 0.032633
						CHANNELS 3 Xrotation Yrotation Zrotation
						JOINT Neck_virtual
						{
							OFFSET 0.000000 0.000000 0.000000
							CHANNELS 3 Xrotation Yrotation Zrotation
							JOINT Neck
							{
								OFFSET -0.003700 21.199493 -0.826900
								CHANNELS 3 Xrotation Yrotation Zrotation
								JOINT Head
								{
									OFFSET 0.000000 20.442200 4.834800
									CHANNELS 3 Xrotation Yrotation Zrotation
									JOINT HeadTop_End
									{
										OFFSET 0.000000 34.668396 4.968400
										CHANNELS 3 Xrotation Yrotation Zrotation
										End Site
										{
											OFFSET 0 0 0
										}
									}
								}
							}
						}
						JOINT LeftShoulder_virtual
						{
							OFFSET 0.000000 0.000000 0.000000
							CHANNELS 3 Xrotation Yrotation Zrotation
							JOINT LeftShoulder
							{
								OFFSET 3.288150 8.794197 -1.372250
								CHANNELS 3 Xrotation Yrotation Zrotation
								JOINT LeftShoulder_split
								{
									OFFSET 3.288150 8.794197 -1.372250
									CHANNELS 3 Xrotation Yrotation Zrotation
									JOINT LeftArm
									{
										OFFSET 11.953299 -2.279007 -0.146200
										CHANNELS 3 Xrotation Yrotation Zrotation
										JOINT LeftForeArm
										{
											OFFSET 18.448900 0.000000 0.000000
											CHANNELS 3 Xrotation Yrotation Zrotation
											JOINT LeftHand
											{
												OFFSET 29.527798 0.000000 0.000000
												CHANNELS 3 Xrotation Yrotation Zrotation
												End Site
												{
													OFFSET 0 0 0
												}
											}
										}
									}
								}
							}
						}
						JOINT RightShoulder_virtual
						{
							OFFSET 0.000000 0.000000 0.000000
							CHANNELS 3 Xrotation Yrotation Zrotation
							JOINT RightShoulder
							{
								OFFSET -3.249400 8.794197 -1.372250
								CHANNELS 3 Xrotation Yrotation Zrotation
								JOINT RightShoulder_split
								{
									OFFSET -3.249400 8.794197 -1.372250
									CHANNELS 3 Xrotation Yrotation Zrotation
									JOINT RightArm
									{
										OFFSET -11.953299 -2.279007 -0.146200
										CHANNELS 3 Xrotation Yrotation Zrotation
										JOINT RightForeArm
										{
											OFFSET -18.448900 0.000000 0.000000
											CHANNELS 3 Xrotation Yrotation Zrotation
											JOINT RightHand
											{
												OFFSET -29.527802 0.000000 0.000000
												CHANNELS 3 Xrotation Yrotation Zrotation
												End Site
												{
													OFFSET 0 0 0
												}
											}
										}
									}
								}
							}
						}
					}
				}
			}
		}
	}
}
MOTION
Frames: 11
Frame Time: 0.03333333
-1.342736 81.144379 4.295872 0.000000 0.000000 0.000000 9.016130 -46.048210 11.071384 -68.887451 16.971792 41.981409 51.591325 -21.213396 6.147074 4.985672 2.910838 -17.263334 -3.125294 -3.579831 13.983050 0.000000 0.000000 0.000000 9.215840 -45.246441 11.982806 -32.901271 8.679521 -20.887704 48.083617 6.481625 -4.951847 -20.290001 3.685673 28.878890 9.649202 5.432141 0.765474 0.000000 0.000000 0.000000 7.450638 -52.110184 10.453328 10.763916 4.606633 -3.069744 5.043561 8.782010 -4.375156 -0.359470 -2.317208 -0.203913 0.000000 0.000000 0.000000 -1.718308 7.762065 -2.260960 -1.577013 12.729746 0.876749 -1.529698 15.711170 -2.539592 0.000000 0.000000 0.000000 -5.131035 7.617967 -2.977049 0.650893 -14.547056 -0.670707 6.905833 0.284761 0.432669 -11.918961 2.575395 -45.177586 -24.516117 -36.031031 -15.777518 0.000000 0.000000 0.000000 -5.060577 7.178134 -2.160346 -3.201444 16.817210 1.496683 -0.991334 1.075195 -1.789938 12.039687 -28.379054 60.999627 -27.176220 44.652963 28.002053 0.000000 0.000000 0.000000 
-1.295895 80.901047 2.676693 0.000000 0.000000 0.000000 9.019697 -46.986763 11.529154 -67.172575 15.598458 41.273184 54.636975 -21.432367 7.009421 4.131948 2.964970 -18.746257 -2.514556 -3.261590 13.038962 0.000000 0.000000 0.000000 9.050132 -45.398840 11.767634 -32.972793 8.078634 -21.259160 47.923404 6.035479 -4.810936 -19.701520 2.378579 27.269935 14.020112 5.842004 0.577463 0.000000 0.000000 0.000000 7.162159 -52.881684 10.515189 11.397288 4.220969 -3.337182 5.204149 8.772230 -4.392860 -0.471573 -2.877618 0.147744 0.000000 0.000000 0.000000 -1.805479 7.688750 -2.169946 -1.127502 12.504430 0.966432 -0.801957 16.710401 -3.534717 0.000000 0.000000 0.000000 -5.308189 7.595005 -2.910892 0.333664 -12.918668 -0.734429 7.381954 -0.983405 0.850311 -11.003025 2.695581 -44.356693 -24.369963 -36.189416 -15.773062 0.000000 0.000000 0.000000 -5.160928 7.157869 -2.015463 -3.045165 17.831098 0.808979 0.348075 2.807330 -3.146007 11.568367 -28.248556 61.446226 -27.348298 45.013050 27.801833 0.000000 0.000000 0.000000 
-1.418002 80.351112 1.163422 0.000000 0.000000 0.000000 9.575128 -50.144957 12.147262 -64.813899 12.480184 40.731020 60.268319 -21.023835 7.914867 2.979218 4.310847 -19.554268 -1.023381 -2.205587 9.894691 0.000000 0.000000 0.000000 8.665507 -47.441439 11.234545 -34.699888 8.942907 -21.468794 48.982473 6.243576 -5.010636 -17.920181 0.702839 26.994793 13.845077 6.108006 0.329736 0.000000 0.000000 0.000000 7.090054 -54.464898 10.228256 12.199800 3.658715 -3.518702 5.369828 8.688437 -4.452875 -0.493853 -3.675433 0.550849 0.000000 0.000000 0.000000 -1.700587 7.566758 -2.183286 -0.322907 11.938730 0.877979 -0.031332 17.811077 -4.872206 0.000000 0.000000 0.000000 -5.174823 7.535996 -2.888052 0.067021 -10.604092 -0.683782 7.965987 -2.724495 1.018427 -9.470798 2.986774 -42.703384 -24.309734 -36.455247 -16.238643 0.000000 0.000000 0.000000 -5.167479 7.038714 -1.976851 -3.053109 19.109671 0.149877 1.189507 4.188242 -3.523549 10.442910 -26.703354 60.334415 -26.460836 45.321143 26.082901 0.000000 0.000000 0.000000 
-1.830236 79.658112 -0.084343 0.000000 0.000000 0.000000 10.323833 -55.063564 12.472203 -61.893911 9.157942 40.207107 65.915574 -19.497583 7.893452 0.210136 6.813843 -18.035861 -0.341710 -0.976632 6.219618 0.000000 0.000000 0.000000 8.264382 -50.748613 10.458544 -37.877514 11.260752 -20.963418 51.315648 6.722844 -5.475910 -15.282007 -1.009603 27.540979 9.456152 6.049180 0.632218 0.000000 0.000000 0.000000 7.457537 -56.882140 9.697182 13.052150 3.066010 -3.511171 5.561903 8.589025 -4.510440 -0.012832 -4.073401 1.407086 0.000000 0.000000 0.000000 -1.421311 7.520239 -2.233675 0.503893 11.000689 0.642354 0.467638 18.975273 -6.388834 0.000000 0.000000 0.000000 -4.733982 7.513739 -2.851559 -0.129580 -8.020487 -0.601104 8.431455 -4.430803 0.654869 -7.090988 3.769221 -40.379108 -24.327481 -36.832089 -17.075201 0.000000 0.000000 0.000000 -4.994759 6.939342 -1.987731 -3.119797 20.696955 -0.297145 1.257940 4.723402 -2.932754 8.381096 -24.188685 58.146411 -24.685941 44.896428 23.139026 0.000000 0.000000 0.000000 
-2.430667 79.102043 -0.733753 0.000000 0.000000 0.000000 10.963184 -60.904742 12.121602 -58.755698 6.612453 39.178962 70.841103 -16.961188 6.519428 -5.116788 9.389574 -13.362441 -0.398269 0.150565 3.157519 0.000000 0.000000 0.000000 8.551266 -55.377931 9.715903 -41.696478 14.293532 -19.043589 53.575352 6.763737 -5.923988 -13.087442 -2.695408 27.362301 4.493429 5.523514 1.355385 0.000000 0.000000 0.000000 7.915530 -60.448267 8.839005 13.833846 2.614691 -3.183679 5.801943 8.568136 -4.457564 0.815111 -4.279144 2.281316 0.000000 0.000000 0.000000 -1.010073 7.596325 -2.216708 1.161433 9.797395 0.189231 0.512591 20.210562 -7.803839 0.000000 0.000000 0.000000 -4.043638 7.581559 -2.717473 -0.244238 -5.430668 -0.715294 8.752962 -5.219111 0.385430 -3.584950 5.145614 -38.062124 -24.182293 -37.465418 -18.010929 0.000000 0.000000 0.000000 -4.663383 6.966512 -1.957557 -3.172755 22.656675 -0.451909 1.141085 4.407942 -1.383904 5.215231 -20.922545 55.254615 -22.478858 43.175169 19.577895 0.000000 0.000000 0.000000 
-3.034788 78.750481 -0.728771 0.000000 0.000000 0.000000 11.355248 -66.976343 11.006516 -57.286934 4.470503 37.121802 76.103600 -14.775859 4.696159 -9.821800 9.594085 -8.763397 -0.904493 1.207345 1.393698 0.000000 0.000000 0.000000 10.093120 -61.112933 9.593702 -45.621695 17.322082 -15.622080 54.611361 6.169460 -6.144372 -11.930029 -3.868766 25.737592 1.572854 4.567994 2.068246 0.000000 0.000000 0.000000 8.824622 -65.225971 8.098221 14.320818 2.375680 -2.502996 6.112039 8.661475 -4.163526 0.881034 -4.162610 2.511261 0.000000 0.000000 0.000000 -0.490436 7.781086 -2.018579 1.639309 8.257175 -0.523091 0.231548 21.148554 -8.780033 0.000000 0.000000 0.000000 -3.252211 7.725752 -2.393606 -0.282103 -3.006870 -1.091518 8.776575 -5.025418 0.299167 1.409332 6.558213 -36.711078 -23.630226 -38.808206 -18.747776 0.000000 0.000000 0.000000 -4.208721 7.092851 -1.768786 -3.180377 25.021669 -0.191121 0.971307 3.293212 0.506556 1.231442 -16.895127 52.227434 -20.020053 39.461199 15.871910 0.000000 0.000000 0.000000 
-3.656583 78.685143 -0.442352 0.000000 0.000000 0.000000 12.237781 -72.550324 9.908358 -58.100745 2.637383 33.682545 81.816787 -13.694549 3.291277 -10.916727 6.520273 -6.375883 -2.369425 2.090515 0.891976 0.000000 0.000000 0.000000 13.569109 -67.687960 10.917599 -49.435652 19.479881 -11.462255 53.588172 5.472830 -6.164058 -10.062540 -3.654687 24.085337 0.347707 3.502469 2.020936 0.000000 0.000000 0.000000 11.594545 -71.228389 8.984258 14.478970 2.343669 -1.552222 6.447786 8.822441 -3.564653 0.329990 -3.705431 2.504136 0.000000 0.000000 0.000000 0.084042 7.995097 -1.547180 1.846848 6.396114 -1.300326 -0.357979 21.034503 -8.839554 0.000000 0.000000 0.000000 -2.506859 7.894811 -1.825044 -0.272670 -0.934740 -1.778773 8.323376 -4.217075 0.422591 8.092750 6.948097 -37.183359 -22.309327 -41.139230 -18.818957 0.000000 0.000000 0.000000 -3.675573 7.225304 -1.345874 -3.170223 27.896415 0.512125 0.800610 1.827863 1.714224 -2.766039 -11.837298 49.388125 -17.516326 33.999913 12.433849 0.000000 0.000000 0.000000 
-4.314237 79.007744 -0.232975 0.000000 0.000000 0.000000 17.037847 -78.040840 12.562341 -59.955619 1.064568 28.011936 86.644850 -13.489472 2.909043 -8.961173 1.074784 -6.388073 -7.695638 2.613954 2.726539 0.000000 0.000000 0.000000 21.709085 -75.245243 17.036964 -52.979377 20.395665 -7.553218 50.089848 5.592471 -6.109184 -5.265021 -1.052684 24.395559 -0.435825 2.547205 0.716223 0.000000 0.000000 0.000000 19.896618 -78.141100 15.453986 14.322867 2.365853 -0.433340 6.727400 8.921994 -2.609186 -0.304734 -3.265335 1.994497 0.000000 0.000000 0.000000 0.578466 8.106070 -0.713784 1.676198 4.115951 -2.002046 -1.298111 19.206285 -7.630264 0.000000 0.000000 0.000000 -1.929343 7.996177 -0.990763 -0.252870 0.747224 -2.554366 7.644330 -3.277174 1.078758 16.313475 5.005775 -39.751318 -20.052215 -44.673163 -17.857963 0.000000 0.000000 0.000000 -3.146476 7.242258 -0.673612 -3.204220 31.153292 1.787372 0.570618 -0.360053 2.159405 -5.998477 -4.983478 46.851515 -15.177727 28.411644 9.630711 0.000000 0.000000 0.000000 
-4.840031 79.969360 -0.314648 0.000000 0.000000 0.000000 38.584039 -83.627231 32.321125 -60.715683 -0.525573 19.641959 88.756020 -13.115597 3.306772 -7.696419 -4.780623 -6.972326 -17.046865 2.526801 6.234632 0.000000 0.000000 0.000000 49.579223 -82.535678 43.561263 -56.382952 20.089391 -4.732438 44.063746 7.299374 -6.102604 2.290515 4.396862 27.006090 -1.774436 1.683610 -1.381275 0.000000 0.000000 0.000000 57.118345 -84.130172 50.811557 13.769092 2.298104 0.709415 6.955841 8.825953 -1.359125 -0.843838 -2.733469 1.114417 0.000000 0.000000 0.000000 0.876557 7.964339 0.481829 1.128585 1.207548 -2.281405 -2.606832 15.206136 -5.145105 0.000000 0.000000 0.000000 -1.587214 7.908043 0.053445 -0.240187 1.672798 -3.090708 6.866030 -2.813013 1.934085 24.629234 0.562251 -43.760940 -16.626572 -48.984460 -15.513402 0.000000 0.000000 0.000000 -2.633795 7.070767 0.249792 -3.406157 34.476432 3.552668 -0.053456 -3.025802 2.028137 -7.927859 4.055623 44.355802 -12.951386 24.517951 7.405061 0.000000 0.000000 0.000000 
-5.206847 81.722801 -0.050747 0.000000 0.000000 0.000000 114.629590 -84.636808 107.450186 -59.208403 -2.197655 9.912462 87.678414 -11.311781 3.197389 -10.642358 -8.318147 -5.774668 -23.560816 2.685433 7.917629 0.000000 0.000000 0.000000 128.777070 -82.217746 122.218831 -59.571797 18.860664 -3.255365 35.999455 9.775686 -5.844940 9.836017 11.089300 29.359708 -3.368693 0.814776 -3.103429 0.000000 0.000000 0.000000 129.757967 -81.940140 121.883619 12.989576 2.075355 1.771990 7.208914 8.454444 0.081080 -0.964663 -1.539822 0.644680 0.000000 0.000000 0.000000 0.898544 7.531445 1.884485 0.485946 -2.476046 -1.784151 -4.291960 8.981525 -1.717109 0.000000 0.000000 0.000000 -1.398150 7.582031 1.213384 -0.198901 1.649147 -3.160239 6.151355 -2.604670 2.859061 31.775092 -5.663476 -48.128648 -11.970812 -53.605018 -11.664049 0.000000 0.000000 0.000000 -2.192246 6.765944 1.395612 -3.783841 37.456559 5.422792 -1.107315 -5.249203 1.523811 -8.459846 14.762103 41.125679 -10.865312 24.052257 5.583606 0.000000 0.000000 0.000000 
-5.352062 84.056778 0.680897 0.000000 0.000000 0.000000 148.664518 -78.220310 141.543117 -56.385401 -4.461883 0.762374 84.285456 -7.956601 2.209087 -16.159169 -8.935803 -3.184441 -21.733291 4.256176 6.044790 0.000000 0.000000 0.000000 155.229149 -73.938779 149.032815 -61.717036 17.202711 -2.923345 28.176969 11.025139 -5.213788 15.101980 15.687105 27.443157 -3.796590 -0.315562 -3.028825 0.000000 0.000000 0.000000 151.315437 -74.553919 142.295107 12.139727 1.645267 2.708074 7.458303 7.831561 1.628002 -0.885553 -0.213319 -0.061042 0.000000 0.000000 0.000000 0.656498 6.869726 3.285114 0.201881 -6.872055 -0.419852 -6.053702 0.984139 1.926947 0.000000 0.000000 0.000000 -1.361063 7.044205 2.437798 -0.073464 0.632512 -2.401567 5.139940 -2.272263 3.290763 37.309461 -12.273318 -51.988009 -6.462791 -57.768661 -6.450443 0.000000 0.000000 0.000000 -1.837662 6.339636 2.683408 -4.145483 39.561070 6.949397 -2.248310 -7.144944 0.863402 -6.949367 25.698385 36.108611 -8.880632 28.051981 3.844506 0.000000 0.000000 0.000000 
